# xmcd
#
# Track frame offsets: 
#        150
#        50941
#        89938
#        114253
#        192929
#
# Disc length: 3161 seconds
#
# Revision: 3
# Processed by: cddbd v1.5.2PL0 Copyright (c) Steve Scherf et al.
# Submitted via: ExactAudioCopy v1.0b1
#
DISCID=470c5705
DTITLE=Isao Tomita - The Planet
DYEAR=2005
DGENRE=New Age
TTITLE0=MARS - The Bringer of War
TTITLE1=VENUS - The Bringer of Prace
TTITLE2=MERCURY - The Winged Messenger
TTITLE3=JUPITER - The Bringer of Jollity - SATURN - The Bringer of Old
TTITLE3=Age
TTITLE4=URANUS - The Magician - NEPTUNE - The Mystic
EXTD=YEAR: 2005
EXTT0=
EXTT1=
EXTT2=
EXTT3=
EXTT4=
PLAYORDER=
